<?xml version="1.0" encoding="utf-8"?><svg viewBox="0 0 489.54 489.54" xmlns="http://www.w3.org/2000/svg" xmlns:xlink="http://www.w3.org/1999/xlink"><style>:root>svg{display:none}:root>svg:target{display:block}</style><svg viewBox="0 0 58 16" id="arrow-r" xmlns="http://www.w3.org/2000/svg"><path d="M57.41 8.707a1 1 0 000-1.414L51.046.929a1 1 0 10-1.414 1.414L55.289 8l-5.657 5.657a1 1 0 001.414 1.414l6.364-6.364zM.907 9h55.796V7H.907v2z"/></svg><svg fill="none" viewBox="0 0 100 79" id="check" xmlns="http://www.w3.org/2000/svg"><path d="M88.42 2.978a6.642 6.642 0 019.488 0c2.592 2.62 2.628 6.851.09 9.516L44.413 75.84a6.642 6.642 0 01-9.651.18L2.154 42.98a6.86 6.86 0 010-9.606 6.645 6.645 0 019.488 0l27.659 28.03L88.239 3.177c.056-.07.116-.136.18-.199z" fill="#F8F8F8"/></svg><svg fill="none" viewBox="0 0 24 24" id="done-checked" xmlns="http://www.w3.org/2000/svg"><path fill-rule="evenodd" clip-rule="evenodd" d="M21.506 5.994l-9.88 9.88-3.48-3.47a.996.996 0 00-1.41 0 .996.996 0 000 1.41l4.18 4.18c.39.39 1.02.39 1.41 0l10.59-10.58a.996.996 0 000-1.41h-.01a.975.975 0 00-1.4-.01zm-4.24.01a.996.996 0 00-1.41 0l-5.64 5.64 1.41 1.41 5.64-5.65c.38-.38.38-1.02 0-1.4zm-12 12l-4.18-4.18c-.39-.39-.39-1.03 0-1.42a.996.996 0 011.41 0l4.88 4.9-.7.7a.996.996 0 01-1.41 0z" fill="#F07600"/></svg><svg fill="none" viewBox="0 0 24 24" id="form-user-name" xmlns="http://www.w3.org/2000/svg"><path fill-rule="evenodd" clip-rule="evenodd" d="M11.99 2C6.47 2 2 6.47 2 12s4.47 10 9.99 10C17.51 22 22 17.53 22 12S17.52 2 11.99 2zM8.88 9.94l.53.53c.29.29.77.29 1.06 0 .29-.29.29-.77 0-1.06l-.88-.88a.996.996 0 00-1.41 0l-.89.88c-.29.29-.29.77 0 1.06.29.29.77.29 1.06 0l.53-.53zM12 17.5c2.03 0 3.8-1.11 4.75-2.75a.503.503 0 00-.44-.75H7.69c-.38 0-.63.42-.44.75A5.489 5.489 0 0012 17.5zm2.59-7.03c-.29.29-.77.29-1.06 0a.746.746 0 01.01-1.06l.88-.88a.996.996 0 011.41 0l.88.88c.29.29.29.77 0 1.06-.29.29-.77.29-1.06 0l-.53-.53-.53.53zM4 12c0 4.42 3.58 8 8 8s8-3.58 8-8-3.58-8-8-8-8 3.58-8 8z" fill="#F07600"/></svg><svg fill="none" viewBox="0 0 24 24" id="form-user-phone" xmlns="http://www.w3.org/2000/svg"><path fill-rule="evenodd" clip-rule="evenodd" d="M16.682 14.978l2.54.29c1.01.12 1.77.97 1.76 1.98v1.73c0 1.13-.94 2.07-2.07 2-8.53-.53-15.36-7.35-15.89-15.89-.07-1.13.87-2.07 2-2.07h1.73c1.02 0 1.87.76 1.99 1.77l.29 2.52c.07.61-.14 1.21-.57 1.64l-1.85 1.85c1.44 2.84 3.76 5.15 6.59 6.59l1.84-1.84a1.99 1.99 0 011.64-.57zm-3.81-9.92c3.18.4 5.67 2.89 6.07 6.07.06.51.49.88.99.88.04 0 .08 0 .12-.01.55-.07.94-.57.87-1.12a8.981 8.981 0 00-7.81-7.81c-.55-.06-1.05.33-1.11.88-.07.55.32 1.05.87 1.11zm.38 2.11a1 1 0 00-1.22.72c-.14.54.18 1.08.72 1.22a3 3 0 012.15 2.15 1.003 1.003 0 001.22.72c.53-.14.85-.69.72-1.22a5.018 5.018 0 00-3.59-3.59z" fill="#F07600"/></svg><svg viewBox="0 0 489.536 489.536" id="location" xmlns="http://www.w3.org/2000/svg"><path d="M488.554 476l-99-280.2c-1-4.2-5.2-7.3-9.4-7.3h-45.6c12.9-31.1 19.6-54.9 19.6-70.8 0-64.6-50-117.7-112.5-117.7-61.5 0-112.5 52.1-112.5 117.7 0 17.6 8.2 43.1 19.9 70.8h-39.7c-4.2 0-8.3 3.1-9.4 7.3L.954 476c-3.2 10.3 6.3 13.5 9.4 13.5h468.8c4.2.5 12.5-4.2 9.4-13.5zm-246.9-455.3c51 0 91.7 43.7 91.7 96.9 0 56.5-79.2 182.3-91.7 203.1-31.3-53.1-91.7-161.5-91.7-203.1 0-53.1 40.6-96.9 91.7-96.9zm-216.7 448l91.7-259.4h41.7c29.9 64.1 83.3 151 83.3 151s81.4-145.7 83.8-151h47.4l91.7 259.4h-439.6z"/><path d="M177.054 379.1h136.5v20.8h-136.5zm112.5-270.9c0-26-21.9-47.9-47.9-47.9s-47.9 21.9-47.9 47.9 20.8 47.9 47.9 47.9c27.1 0 47.9-21.8 47.9-47.9zm-75-1c0-14.6 11.5-27.1 27.1-27.1s27.1 12.5 27.1 27.1-11.5 27.1-27.1 27.1c-14.6 0-27.1-12.5-27.1-27.1z"/></svg><svg viewBox="0 0 473.806 473.806" id="phone" xmlns="http://www.w3.org/2000/svg"><path d="M374.456 293.506c-9.7-10.1-21.4-15.5-33.8-15.5-12.3 0-24.1 5.3-34.2 15.4l-31.6 31.5c-2.6-1.4-5.2-2.7-7.7-4-3.6-1.8-7-3.5-9.9-5.3-29.6-18.8-56.5-43.3-82.3-75-12.5-15.8-20.9-29.1-27-42.6 8.2-7.5 15.8-15.3 23.2-22.8 2.8-2.8 5.6-5.7 8.4-8.5 21-21 21-48.2 0-69.2l-27.3-27.3c-3.1-3.1-6.3-6.3-9.3-9.5-6-6.2-12.3-12.6-18.8-18.6-9.7-9.6-21.3-14.7-33.5-14.7s-24 5.1-34 14.7l-.2.2-34 34.3c-12.8 12.8-20.1 28.4-21.7 46.5-2.4 29.2 6.2 56.4 12.8 74.2 16.2 43.7 40.4 84.2 76.5 127.6 43.8 52.3 96.5 93.6 156.7 122.7 23 10.9 53.7 23.8 88 26 2.1.1 4.3.2 6.3.2 23.1 0 42.5-8.3 57.7-24.8.1-.2.3-.3.4-.5 5.2-6.3 11.2-12 17.5-18.1 4.3-4.1 8.7-8.4 13-12.9 9.9-10.3 15.1-22.3 15.1-34.6 0-12.4-5.3-24.3-15.4-34.3l-54.9-55.1zm35.8 105.3c-.1 0-.1.1 0 0-3.9 4.2-7.9 8-12.2 12.2-6.5 6.2-13.1 12.7-19.3 20-10.1 10.8-22 15.9-37.6 15.9-1.5 0-3.1 0-4.6-.1-29.7-1.9-57.3-13.5-78-23.4-56.6-27.4-106.3-66.3-147.6-115.6-34.1-41.1-56.9-79.1-72-119.9-9.3-24.9-12.7-44.3-11.2-62.6 1-11.7 5.5-21.4 13.8-29.7l34.1-34.1c4.9-4.6 10.1-7.1 15.2-7.1 6.3 0 11.4 3.8 14.6 7l.3.3c6.1 5.7 11.9 11.6 18 17.9 3.1 3.2 6.3 6.4 9.5 9.7l27.3 27.3c10.6 10.6 10.6 20.4 0 31-2.9 2.9-5.7 5.8-8.6 8.6-8.4 8.6-16.4 16.6-25.1 24.4-.2.2-.4.3-.5.5-8.6 8.6-7 17-5.2 22.7l.3.9c7.1 17.2 17.1 33.4 32.3 52.7l.1.1c27.6 34 56.7 60.5 88.8 80.8 4.1 2.6 8.3 4.7 12.3 6.7 3.6 1.8 7 3.5 9.9 5.3.4.2.8.5 1.2.7 3.4 1.7 6.6 2.5 9.9 2.5 8.3 0 13.5-5.2 15.2-6.9l34.2-34.2c3.4-3.4 8.8-7.5 15.1-7.5 6.2 0 11.3 3.9 14.4 7.3l.2.2 55.1 55.1c10.3 10.2 10.3 20.7.1 31.3zm-154.2-286.1c26.2 4.4 50 16.8 69 35.8s31.3 42.8 35.8 69c1.1 6.6 6.8 11.2 13.3 11.2.8 0 1.5-.1 2.3-.2 7.4-1.2 12.3-8.2 11.1-15.6-5.4-31.7-20.4-60.6-43.3-83.5s-51.8-37.9-83.5-43.3c-7.4-1.2-14.3 3.7-15.6 11s3.5 14.4 10.9 15.6zm217.2 96.3c-8.9-52.2-33.5-99.7-71.3-137.5s-85.3-62.4-137.5-71.3c-7.3-1.3-14.2 3.7-15.5 11-1.2 7.4 3.7 14.3 11.1 15.6 46.6 7.9 89.1 30 122.9 63.7 33.8 33.8 55.8 76.3 63.7 122.9 1.1 6.6 6.8 11.2 13.3 11.2.8 0 1.5-.1 2.3-.2 7.3-1.1 12.3-8.1 11-15.4z"/></svg><svg viewBox="0 0 21 16" id="quiz-arrow-r" xmlns="http://www.w3.org/2000/svg"><path d="M20.707 8.707a1 1 0 000-1.414L14.343.929a1 1 0 10-1.414 1.414L18.586 8l-5.657 5.657a1 1 0 001.414 1.414l6.364-6.364zM0 9h20V7H0v2z"/></svg><svg fill="none" viewBox="0 0 76 76" id="reservation-date" xmlns="http://www.w3.org/2000/svg"><path d="M68.998 4.687l1.869 1.868c2.574 2.578 2.185 7.147-.877 10.206L31.46 55.29l-12.482 4.566c-1.568.577-3.094-.17-3.405-1.662a2.938 2.938 0 01.143-1.615l4.655-12.59L58.792 5.563c3.062-3.06 7.632-3.452 10.206-.874v-.003zM29.78 8.518a3.167 3.167 0 110 6.334H17.113a6.333 6.333 0 00-6.334 6.333v38a6.333 6.333 0 006.334 6.333h38a6.333 6.333 0 006.333-6.333V46.518a3.166 3.166 0 116.333 0v12.667a12.667 12.667 0 01-12.666 12.667h-38A12.667 12.667 0 014.445 59.185v-38A12.667 12.667 0 0117.113 8.518h12.666z" fill="#F8F8F8"/></svg><svg fill="none" viewBox="0 0 70 70" id="reservation-info" xmlns="http://www.w3.org/2000/svg"><g clip-path="url(#jclip0_86_218)" fill="#F8F8F8"><path d="M35 65.625a30.625 30.625 0 110-61.25 30.625 30.625 0 010 61.25zM35 70a35 35 0 100-70 35 35 0 000 70z"/><path d="M39.069 28.823l-10.02 1.255-.358 1.663 1.969.363c1.286.306 1.54.77 1.26 2.052L28.69 49.328c-.849 3.924.46 5.77 3.535 5.77 2.384 0 5.154-1.102 6.41-2.615l.384-1.82c-.875.77-2.152 1.076-3 1.076-1.204 0-1.642-.845-1.33-2.332l4.379-20.584zm.306-9.136a4.375 4.375 0 11-8.75 0 4.375 4.375 0 018.75 0z"/></g><defs><clipPath id="jclip0_86_218"><path fill="#fff" d="M0 0h70v70H0z"/></clipPath></defs></svg><svg fill="none" viewBox="0 0 68 68" id="reservation-pay" xmlns="http://www.w3.org/2000/svg"><g clip-path="url(#kclip0_86_232)"><path d="M0 53.829V59.5C0 64.188 11.422 68 25.5 68S51 64.188 51 59.5v-5.671C45.515 57.694 35.487 59.5 25.5 59.5c-9.988 0-20.015-1.806-25.5-5.671zM42.5 17C56.578 17 68 13.188 68 8.5 68 3.812 56.578 0 42.5 0S17 3.812 17 8.5c0 4.688 11.422 8.5 25.5 8.5zM0 39.897v6.853c0 4.688 11.422 8.5 25.5 8.5S51 51.438 51 46.75v-6.853c-5.485 4.516-15.526 6.853-25.5 6.853S5.485 44.413 0 39.897zm55.25 1.46C62.86 39.885 68 37.148 68 34v-5.671c-3.081 2.178-7.61 3.665-12.75 4.582v8.447zM25.5 21.25C11.422 21.25 0 26.005 0 31.875S11.422 42.5 25.5 42.5 51 37.745 51 31.875 39.578 21.25 25.5 21.25zm29.126 7.477C62.594 27.293 68 24.477 68 21.25v-5.671c-4.715 3.334-12.816 5.127-21.343 5.552 3.918 1.899 6.8 4.449 7.969 7.596z" fill="#F8F8F8"/></g><defs><clipPath id="kclip0_86_232"><path fill="#fff" d="M0 0h68v68H0z"/></clipPath></defs></svg><svg fill="none" viewBox="0 0 85 85" id="reservation-tel" xmlns="http://www.w3.org/2000/svg"><path d="M63.75 34.531h-5.313a7.977 7.977 0 00-7.968-7.968V21.25A13.297 13.297 0 0163.75 34.531z" fill="#F8F8F8"/><path d="M74.375 34.531h-5.313A18.615 18.615 0 0050.47 15.938v-5.313a23.933 23.933 0 0123.906 23.906zm-20.366 22.53l5.95-5.95a5.757 5.757 0 016.208-1.274l7.246 2.9a5.756 5.756 0 013.618 5.345v13.177a5.755 5.755 0 01-6.067 5.762C20.172 73.86 9.913 30.839 8.008 14.365a5.743 5.743 0 015.722-6.396h12.944a5.756 5.756 0 015.344 3.618l2.898 7.246a5.757 5.757 0 01-1.275 6.208l-5.95 5.95s3.3 23.194 26.318 26.07z" fill="#F8F8F8"/></svg><svg fill="none" viewBox="0 0 71 71" id="soc-vk" xmlns="http://www.w3.org/2000/svg"><path fill-rule="evenodd" clip-rule="evenodd" d="M35.063 0C15.698 0 0 15.698 0 35.063c0 19.365 15.698 35.064 35.063 35.064 19.365 0 35.064-15.698 35.064-35.063C70.127 15.697 54.429 0 35.064 0zm20.781 22.24c1.534 0 1.88.793 1.534 1.881-.54 2.495-5.03 9.115-6.42 11.165-.265.39-.417.614-.41.614-.544.89-.742 1.287 0 2.276.269.366.838.925 1.488 1.563.67.656 1.424 1.397 2.026 2.1 2.178 2.474 3.86 4.553 4.306 5.988.396 1.435-.297 2.177-1.782 2.177H51.49c-1.351 0-2.047-.775-3.531-2.429-.637-.709-1.418-1.579-2.457-2.619-3.02-2.92-4.355-3.315-5.098-3.315-1.04 0-1.336.247-1.336 1.732v4.602c0 1.238-.396 1.98-3.662 1.98-5.395 0-11.383-3.266-15.59-9.354-6.334-8.908-8.066-15.638-8.066-16.975 0-.742.247-1.435 1.732-1.435h5.147c1.287 0 1.781.545 2.276 1.98 2.524 7.275 6.73 13.659 8.463 13.659.643 0 .94-.297.94-1.93v-7.523c-.122-2.138-.866-3.07-1.418-3.76-.342-.429-.61-.765-.61-1.238 0-.594.494-1.188 1.286-1.188h8.017c1.09 0 1.485.594 1.485 1.88v10.146c0 1.089.445 1.485.792 1.485.643 0 1.188-.396 2.375-1.584 3.663-4.107 6.285-10.442 6.285-10.442.347-.742.94-1.435 2.228-1.435h5.097z" fill="#fff"/></svg></svg>