<?xml version="1.0" standalone="no"?>
<!DOCTYPE svg PUBLIC "-//W3C//DTD SVG 20010904//EN"
 "http://www.w3.org/TR/2001/REC-SVG-20010904/DTD/svg10.dtd">
<svg version="1.0" xmlns="http://www.w3.org/2000/svg"
 width="148.000000pt" height="148.000000pt" viewBox="0 0 148.000000 148.000000"
 preserveAspectRatio="xMidYMid meet">
<metadata>
Created by potrace 1.14, written by Peter Selinger 2001-2017
</metadata>
<g transform="translate(0.000000,148.000000) scale(0.100000,-0.100000)"
fill="#000000" stroke="none">
<path d="M577 1170 c-136 -43 -235 -147 -270 -282 -8 -32 -13 -58 -11 -58 2 0
12 17 23 38 42 83 140 167 241 206 105 42 246 29 349 -32 62 -36 144 -119 167
-169 10 -23 22 -43 26 -43 10 0 -28 117 -52 157 -11 19 -19 37 -17 39 8 9 143
34 180 34 50 0 97 -25 97 -51 0 -45 -53 -107 -143 -167 -44 -29 -47 -36 -9
-20 88 39 230 155 273 225 26 42 28 92 4 109 -42 31 -183 11 -357 -50 l-93
-32 -50 38 c-96 73 -239 97 -358 58z"/>
<path d="M815 994 c-69 -36 -265 -161 -265 -170 0 -2 45 18 100 46 54 27 139
66 187 86 48 20 90 38 93 41 5 5 -29 33 -39 33 -3 0 -37 -17 -76 -36z"/>
<path d="M2 752 l3 -67 59 0 c39 0 61 4 64 13 2 8 -11 12 -47 12 l-51 0 0 49
c0 35 -4 51 -15 55 -14 5 -15 -4 -13 -62z"/>
<path d="M836 802 c-3 -9 -5 -40 -5 -67 l1 -51 64 0 c47 -1 64 3 64 13 0 9
-15 13 -49 13 l-48 0 2 49 c1 34 -2 52 -11 55 -7 3 -15 -3 -18 -12z"/>
<path d="M180 744 c-16 -26 -27 -51 -23 -57 4 -6 10 -5 17 4 16 21 82 24 89 5
7 -17 27 -22 27 -6 0 18 -55 100 -68 100 -7 0 -26 -21 -42 -46z m54 1 c4 -10
-1 -15 -14 -15 -13 0 -18 5 -14 15 4 8 10 15 14 15 4 0 10 -7 14 -15z"/>
<path d="M337 784 c-4 -4 -7 -18 -7 -30 0 -20 6 -23 48 -26 26 -2 46 -7 45
-12 -3 -12 -73 -16 -73 -5 0 5 -7 6 -15 3 -11 -5 -13 -10 -5 -19 8 -10 68 -13
113 -6 5 0 7 13 5 29 -3 25 -7 27 -50 30 -27 2 -48 8 -48 14 0 7 18 9 50 6 35
-4 50 -2 47 6 -4 12 -99 21 -110 10z"/>
<path d="M500 737 l0 -53 55 -1 c36 0 55 4 55 11 0 7 -15 12 -37 12 -43 -1
-57 17 -18 22 32 4 33 22 0 22 -14 0 -25 5 -25 10 0 6 18 10 40 10 22 0 40 5
40 10 0 6 -25 10 -55 10 l-55 0 0 -53z"/>
<path d="M659 783 c-6 -34 -4 -93 3 -93 4 0 11 -1 15 -2 5 -2 8 4 9 12 1 8 2
19 2 23 1 5 16 -2 34 -15 34 -24 58 -31 58 -18 0 4 -7 10 -15 14 -8 3 -15 10
-15 16 0 6 4 8 10 5 11 -7 25 39 15 54 -7 12 -114 15 -116 4z m91 -28 c0 -15
-26 -20 -54 -9 -28 11 -17 24 19 24 24 0 35 -5 35 -15z"/>
<path d="M1011 740 c-17 -27 -26 -52 -22 -55 5 -2 14 1 19 8 16 19 78 21 85 2
4 -8 13 -12 21 -9 12 5 9 15 -15 55 -17 27 -37 49 -44 49 -7 0 -27 -22 -44
-50z m59 -2 c0 -5 -9 -8 -20 -8 -18 0 -19 3 -8 20 9 14 14 16 20 7 4 -7 8 -15
8 -19z"/>
<path d="M1162 738 c2 -31 7 -51 13 -48 6 3 11 14 11 25 1 11 2 23 3 27 0 5
22 -8 47 -27 26 -20 48 -34 51 -32 2 2 5 27 6 56 1 35 -2 51 -10 51 -8 0 -13
-13 -13 -30 0 -37 -7 -37 -50 0 -52 43 -62 40 -58 -22z"/>
<path d="M1344 743 c0 -27 5 -51 10 -55 15 -10 95 -1 112 13 8 6 14 22 14 35
0 37 -26 54 -84 54 l-52 0 0 -47z m104 0 c3 -17 -3 -26 -22 -33 -37 -14 -56
-3 -56 32 0 28 2 29 38 26 30 -2 38 -7 40 -25z"/>
<path d="M1085 617 c-27 -57 -120 -149 -183 -181 -102 -52 -203 -67 -299 -45
-43 10 -54 9 -87 -8 l-39 -20 35 -21 c86 -53 239 -65 338 -26 132 52 236 174
256 302 4 23 5 42 3 42 -2 0 -13 -19 -24 -43z"/>
<path d="M790 579 c-63 -32 -161 -76 -216 -97 l-102 -40 -45 37 c-25 20 -62
62 -83 94 -21 31 -42 57 -47 57 -19 0 -146 -91 -191 -137 -86 -87 -108 -163
-56 -191 96 -51 514 92 772 264 89 59 111 77 91 72 -5 -1 -60 -27 -123 -59z
m-418 -107 c17 -24 28 -45 26 -47 -11 -10 -106 -22 -150 -20 -52 3 -88 28 -88
59 0 24 41 77 91 116 l53 41 19 -53 c11 -29 33 -72 49 -96z"/>
</g>
</svg>
