<svg width="100" height="79" viewBox="0 0 100 79" fill="none" xmlns="http://www.w3.org/2000/svg">
<path d="M88.4198 2.97802C89.0383 2.34696 89.7764 1.84563 90.5911 1.50339C91.4057 1.16115 92.2804 0.984863 93.164 0.984863C94.0476 0.984863 94.9223 1.16115 95.737 1.50339C96.5516 1.84563 97.2897 2.34696 97.9082 2.97802C100.5 5.59708 100.536 9.82926 97.9989 12.4936L44.4123 75.8405C43.8039 76.5086 43.0656 77.0456 42.2425 77.4185C41.4195 77.7915 40.529 77.9926 39.6255 78.0095C38.7221 78.0265 37.8247 77.859 36.9882 77.5172C36.1517 77.1754 35.3938 76.6665 34.7607 76.0218L2.15385 42.9799C0.896314 41.6974 0.191895 39.9729 0.191895 38.1768C0.191895 36.3806 0.896314 34.6561 2.15385 33.3736C2.77233 32.7426 3.5105 32.2413 4.32512 31.899C5.13975 31.5568 6.01447 31.3805 6.89807 31.3805C7.78167 31.3805 8.65639 31.5568 9.47102 31.899C10.2856 32.2413 11.0238 32.7426 11.6423 33.3736L39.301 61.404L88.2385 3.17739C88.2949 3.10735 88.3554 3.04077 88.4198 2.97802Z" fill="#F8F8F8"/>
</svg>
