<svg width="24" height="24" viewBox="0 0 24 24" fill="none" xmlns="http://www.w3.org/2000/svg">
<g id="phone_in_talk_24px">
<path id="icon/notification/phone_in_talk_24px" fill-rule="evenodd" clip-rule="evenodd" d="M16.6817 14.9781L19.2217 15.2681C20.2317 15.3881 20.9917 16.2381 20.9817 17.2481V18.9781C20.9817 20.1081 20.0417 21.0481 18.9117 20.9781C10.3817 20.4481 3.55174 13.6281 3.02174 5.08807C2.95174 3.95807 3.89174 3.01807 5.02174 3.01807H6.75174C7.77174 3.01807 8.62174 3.77807 8.74174 4.78807L9.03174 7.30807C9.10174 7.91807 8.89174 8.51807 8.46174 8.94807L6.61174 10.7981C8.05174 13.6381 10.3717 15.9481 13.2017 17.3881L15.0417 15.5481C15.4717 15.1181 16.0717 14.9081 16.6817 14.9781ZM12.8717 5.05807C16.0517 5.45807 18.5417 7.94807 18.9417 11.1281C19.0017 11.6381 19.4317 12.0081 19.9317 12.0081C19.9717 12.0081 20.0117 12.0081 20.0517 11.9981C20.6017 11.9281 20.9917 11.4281 20.9217 10.8781C20.4117 6.78807 17.2017 3.57807 13.1117 3.06807C12.5617 3.00807 12.0617 3.39807 12.0017 3.94807C11.9317 4.49807 12.3217 4.99807 12.8717 5.05807ZM13.2517 7.16807C12.7217 7.02807 12.1717 7.34807 12.0317 7.88807C11.8917 8.42807 12.2117 8.96807 12.7517 9.10807C13.8017 9.37807 14.6217 10.1981 14.9017 11.2581C15.0217 11.7081 15.4217 12.0081 15.8717 12.0081C15.9517 12.0081 16.0417 11.9981 16.1217 11.9781C16.6517 11.8381 16.9717 11.2881 16.8417 10.7581C16.3717 8.98807 15.0017 7.61807 13.2517 7.16807Z" fill="#F07600"/>
</g>
</svg>
