<svg width="70" height="70" viewBox="0 0 70 70" fill="none" xmlns="http://www.w3.org/2000/svg">
<g clip-path="url(#clip0_86_218)">
<path d="M35 65.625C26.8777 65.625 19.0882 62.3984 13.3449 56.6551C7.60155 50.9118 4.375 43.1223 4.375 35C4.375 26.8777 7.60155 19.0882 13.3449 13.3449C19.0882 7.60155 26.8777 4.375 35 4.375C43.1223 4.375 50.9118 7.60155 56.6551 13.3449C62.3984 19.0882 65.625 26.8777 65.625 35C65.625 43.1223 62.3984 50.9118 56.6551 56.6551C50.9118 62.3984 43.1223 65.625 35 65.625ZM35 70C44.2826 70 53.185 66.3125 59.7487 59.7487C66.3125 53.185 70 44.2826 70 35C70 25.7174 66.3125 16.815 59.7487 10.2513C53.185 3.68749 44.2826 0 35 0C25.7174 0 16.815 3.68749 10.2513 10.2513C3.68749 16.815 0 25.7174 0 35C0 44.2826 3.68749 53.185 10.2513 59.7487C16.815 66.3125 25.7174 70 35 70Z" fill="#F8F8F8"/>
<path d="M39.0685 28.8225L29.0498 30.0781L28.691 31.7406L30.6598 32.1037C31.946 32.41 32.1998 32.8738 31.9198 34.1556L28.691 49.3281C27.8423 53.2525 29.1504 55.0988 32.226 55.0988C34.6104 55.0988 37.3798 53.9963 38.6354 52.4825L39.0204 50.6625C38.1454 51.4325 36.8679 51.7388 36.0192 51.7388C34.816 51.7388 34.3785 50.8944 34.6892 49.4069L39.0685 28.8225ZM39.3748 19.6875C39.3748 20.8478 38.9139 21.9606 38.0934 22.7811C37.2729 23.6016 36.1601 24.0625 34.9998 24.0625C33.8395 24.0625 32.7267 23.6016 31.9062 22.7811C31.0857 21.9606 30.6248 20.8478 30.6248 19.6875C30.6248 18.5272 31.0857 17.4144 31.9062 16.5939C32.7267 15.7734 33.8395 15.3125 34.9998 15.3125C36.1601 15.3125 37.2729 15.7734 38.0934 16.5939C38.9139 17.4144 39.3748 18.5272 39.3748 19.6875Z" fill="#F8F8F8"/>
</g>
<defs>
<clipPath id="clip0_86_218">
<rect width="70" height="70" fill="white"/>
</clipPath>
</defs>
</svg>
