<svg width="76" height="76" viewBox="0 0 76 76" fill="none" xmlns="http://www.w3.org/2000/svg">
<path d="M68.9983 4.68667L70.8666 6.555C73.4411 9.13266 73.0516 13.7022 69.9895 16.7612L31.4606 55.29L18.9776 59.8563C17.4101 60.4327 15.8838 59.6853 15.5735 58.1938C15.4686 57.6528 15.518 57.0931 15.716 56.5788L20.371 43.9882L58.7921 5.56383C61.8543 2.50483 66.4238 2.11217 68.9983 4.68983V4.68667ZM29.7791 8.51833C30.195 8.51833 30.6068 8.60024 30.991 8.75938C31.3752 8.91852 31.7243 9.15177 32.0183 9.44583C32.3124 9.73988 32.5456 10.089 32.7048 10.4732C32.8639 10.8574 32.9458 11.2691 32.9458 11.685C32.9458 12.1008 32.8639 12.5126 32.7048 12.8968C32.5456 13.281 32.3124 13.6301 32.0183 13.9242C31.7243 14.2182 31.3752 14.4515 30.991 14.6106C30.6068 14.7698 30.195 14.8517 29.7791 14.8517H17.1125C15.4328 14.8517 13.8219 15.5189 12.6341 16.7067C11.4464 17.8944 10.7791 19.5053 10.7791 21.185V59.185C10.7791 60.8647 11.4464 62.4756 12.6341 63.6633C13.8219 64.8511 15.4328 65.5183 17.1125 65.5183H55.1125C56.7922 65.5183 58.4031 64.8511 59.5908 63.6633C60.7786 62.4756 61.4458 60.8647 61.4458 59.185V46.5183C61.4458 45.6785 61.7794 44.873 62.3733 44.2792C62.9672 43.6853 63.7726 43.3517 64.6125 43.3517C65.4523 43.3517 66.2578 43.6853 66.8516 44.2792C67.4455 44.873 67.7791 45.6785 67.7791 46.5183V59.185C67.7791 62.5444 66.4446 65.7662 64.0692 68.1417C61.6937 70.5171 58.4719 71.8517 55.1125 71.8517H17.1125C13.7531 71.8517 10.5312 70.5171 8.15578 68.1417C5.78032 65.7662 4.4458 62.5444 4.4458 59.185V21.185C4.4458 17.8256 5.78032 14.6038 8.15578 12.2283C10.5312 9.85285 13.7531 8.51833 17.1125 8.51833H29.7791Z" fill="#F8F8F8"/>
</svg>
