<svg width="85" height="85" viewBox="0 0 85 85" fill="none" xmlns="http://www.w3.org/2000/svg">
<path d="M63.75 34.5312H58.4375C58.4354 32.4185 57.5952 30.3928 56.1012 28.8988C54.6072 27.4048 52.5815 26.5646 50.4688 26.5625V21.25C53.9899 21.2542 57.3656 22.6548 59.8554 25.1446C62.3452 27.6345 63.7458 31.0101 63.75 34.5312Z" fill="#F8F8F8"/>
<path d="M74.3749 34.5313H69.0624C69.0568 29.6016 67.096 24.8755 63.6102 21.3897C60.1244 17.9039 55.3983 15.9431 50.4686 15.9375V10.625C56.8068 10.6321 62.8834 13.153 67.3652 17.6348C71.8469 22.1165 74.3679 28.1931 74.3749 34.5313V34.5313ZM54.0094 57.0616L59.9594 51.1116C60.7559 50.315 61.7686 49.7695 62.872 49.5429C63.9754 49.3163 65.1211 49.4184 66.1671 49.8366L73.4133 52.7372C74.4814 53.1645 75.3968 53.9021 76.0417 54.8547C76.6865 55.8073 77.0312 56.9312 77.0311 58.0816V71.2592C77.033 72.0425 76.875 72.8178 76.5668 73.5379C76.2586 74.2579 75.8067 74.9075 75.2388 75.4468C74.6709 75.9862 73.9988 76.4039 73.2638 76.6746C72.5288 76.9452 71.7464 77.0629 70.9643 77.0206C20.1715 73.8597 9.91302 30.8391 8.00849 14.365C7.91625 13.5596 7.99556 12.7438 8.24122 11.9713C8.48687 11.1988 8.89329 10.487 9.43376 9.8828C9.97422 9.27861 10.6365 8.79568 11.377 8.46579C12.1175 8.13589 12.9194 7.96651 13.7301 7.96877H26.674C27.8243 7.96874 28.9483 8.31337 29.9009 8.95822C30.8535 9.60308 31.591 10.5186 32.0183 11.5866L34.9163 18.8328C35.3345 19.8788 35.4366 21.0245 35.21 22.1279C34.9834 23.2314 34.4379 24.244 33.6413 25.0405L27.6913 30.9905C27.6913 30.9905 30.9904 54.1849 54.0094 57.0616Z" fill="#F8F8F8"/>
</svg>
