<svg width="68" height="68" viewBox="0 0 68 68" fill="none" xmlns="http://www.w3.org/2000/svg">
<g clip-path="url(#clip0_86_232)">
<path d="M0 53.8289V59.5C0 64.1883 11.4219 68 25.5 68C39.5781 68 51 64.1883 51 59.5V53.8289C45.5148 57.6937 35.4875 59.5 25.5 59.5C15.5125 59.5 5.48516 57.6937 0 53.8289ZM42.5 17C56.5781 17 68 13.1883 68 8.5C68 3.81172 56.5781 0 42.5 0C28.4219 0 17 3.81172 17 8.5C17 13.1883 28.4219 17 42.5 17ZM0 39.8969V46.75C0 51.4383 11.4219 55.25 25.5 55.25C39.5781 55.25 51 51.4383 51 46.75V39.8969C45.5148 44.4125 35.4742 46.75 25.5 46.75C15.5258 46.75 5.48516 44.4125 0 39.8969ZM55.25 41.3578C62.8602 39.8836 68 37.1477 68 34V28.3289C64.9187 30.507 60.3898 31.9945 55.25 32.9109V41.3578ZM25.5 21.25C11.4219 21.25 0 26.0047 0 31.875C0 37.7453 11.4219 42.5 25.5 42.5C39.5781 42.5 51 37.7453 51 31.875C51 26.0047 39.5781 21.25 25.5 21.25ZM54.6258 28.7273C62.5945 27.293 68 24.4773 68 21.25V15.5789C63.2852 18.9125 55.1836 20.7055 46.657 21.1305C50.575 23.0297 53.457 25.5797 54.6258 28.7273Z" fill="#F8F8F8"/>
</g>
<defs>
<clipPath id="clip0_86_232">
<rect width="68" height="68" fill="white"/>
</clipPath>
</defs>
</svg>
