<svg width="71" height="71" viewBox="0 0 71 71" fill="none" xmlns="http://www.w3.org/2000/svg">
<path fill-rule="evenodd" clip-rule="evenodd" d="M35.0635 0C15.6985 0 0 15.6985 0 35.0635C0 54.4285 15.6985 70.127 35.0635 70.127C54.4285 70.127 70.127 54.4285 70.127 35.0635C70.127 15.6985 54.4285 0 35.0635 0ZM55.844 22.2407C57.3782 22.2407 57.7246 23.0325 57.3782 24.1213C56.8376 26.6165 52.3479 33.2356 50.9573 35.2857C50.6931 35.6753 50.5407 35.8998 50.5486 35.8998C50.0042 36.7907 49.8063 37.1866 50.5486 38.1764C50.817 38.5423 51.386 39.1007 52.0364 39.7389C52.7052 40.3952 53.4602 41.136 54.0624 41.8386C56.2399 44.3131 57.9226 46.3917 58.368 47.8269C58.7639 49.2621 58.0711 50.0044 56.5864 50.0044H51.4889C50.138 50.0044 49.4417 49.2286 47.9577 47.5753C47.3214 46.8664 46.5403 45.9961 45.5007 44.9565C42.4818 42.0366 41.1456 41.6406 40.4032 41.6406C39.3639 41.6406 39.067 41.8881 39.067 43.3728V47.9753C39.067 49.2126 38.6711 49.9549 35.4048 49.9549C30.0104 49.9549 24.0221 46.6886 19.8155 40.6014C13.4808 31.6932 11.7487 24.9626 11.7487 23.6264C11.7487 22.884 11.9961 22.1912 13.4808 22.1912H18.6277C19.9145 22.1912 20.4094 22.7356 20.9043 24.1708C23.4282 31.4458 27.6349 37.8299 29.367 37.8299C30.0104 37.8299 30.3073 37.533 30.3073 35.8998V28.3774C30.1851 26.2392 29.4408 25.3076 28.8889 24.6168C28.5466 24.1884 28.2782 23.8525 28.2782 23.3789C28.2782 22.7851 28.7731 22.1912 29.565 22.1912H37.5823C38.6711 22.1912 39.067 22.7851 39.067 24.0718V34.2172C39.067 35.306 39.5124 35.7019 39.8588 35.7019C40.5022 35.7019 41.0466 35.306 42.2343 34.1182C45.8966 30.0106 48.5195 23.6759 48.5195 23.6759C48.866 22.9335 49.4598 22.2407 50.7466 22.2407H55.844Z" fill="white"/>
</svg>
